<svg xmlns="http://www.w3.org/2000/svg" xmlns:xlink="http://www.w3.org/1999/xlink" width="375" zoomAndPan="magnify" viewBox="0 0 281.25 281.249989" height="375" preserveAspectRatio="xMidYMid meet" version="1.0"><defs><clipPath id="c87d16d9eb"><path d="M 0 0 L 280.503906 0 L 280.503906 280.503906 L 0 280.503906 Z M 0 0 " clip-rule="nonzero"/></clipPath><clipPath id="b8e40749f4"><path d="M 54.003906 83.828125 L 226.792969 83.828125 L 226.792969 196.777344 L 54.003906 196.777344 Z M 54.003906 83.828125 " clip-rule="nonzero"/></clipPath><clipPath id="effeb3ac64"><path d="M 78.421875 92.054688 L 177.160156 92.054688 L 177.160156 146.855469 L 78.421875 146.855469 Z M 78.421875 92.054688 " clip-rule="nonzero"/></clipPath></defs><g clip-path="url(#c87d16d9eb)"><path fill="#ffffff" d="M 0 0 L 280.503906 0 L 280.503906 280.503906 L 0 280.503906 Z M 0 0 " fill-opacity="1" fill-rule="nonzero"/><path fill="#ffffff" d="M 0 0 L 280.503906 0 L 280.503906 280.503906 L 0 280.503906 Z M 0 0 " fill-opacity="1" fill-rule="nonzero"/></g><g clip-path="url(#b8e40749f4)"><path fill="#ffffff" d="M -13.21875 -17.300781 L 282.992188 -17.300781 L 282.992188 278.910156 L -13.21875 278.910156 Z M -13.21875 -17.300781 " fill-opacity="1" fill-rule="nonzero"/><path fill="#ffffff" d="M -13.21875 -17.300781 L 282.992188 -17.300781 L 282.992188 278.910156 L -13.21875 278.910156 Z M -13.21875 -17.300781 " fill-opacity="1" fill-rule="nonzero"/></g><g clip-path="url(#effeb3ac64)"><path fill="#004aad" d="M 171.8125 94.328125 C 168.339844 93.160156 163.949219 92.054688 160.289062 92.054688 L 160.289062 94.507812 C 167.445312 96.421875 169.59375 99.519531 170.40625 105.207031 L 172.859375 105.207031 C 172.898438 102.480469 172.457031 96.945312 171.8125 94.328125 Z M 78.5 146.691406 L 102.871094 146.691406 L 102.871094 130.058594 L 101.617188 130.058594 C 99.882812 138.222656 95.421875 144.238281 86.320312 144.238281 L 78.5 144.238281 Z M 159.886719 146.71875 C 171.273438 146.785156 177.140625 140.398438 177.140625 129.949219 C 177.140625 112.902344 158.195312 116.136719 151.046875 108.691406 C 146.339844 103.800781 146.269531 100.234375 151.296875 92.054688 C 148.460938 92.054688 148.460938 92.054688 147.054688 94.507812 L 129.773438 124.425781 C 125.785156 124.425781 123.632812 120.722656 120.46875 115.214844 L 107.097656 92.054688 L 78.5 92.054688 L 78.5 94.507812 C 93.328125 94.507812 94.101562 95.828125 96.871094 100.632812 L 120.195312 141.03125 C 122.710938 141.03125 123.371094 140.425781 125.121094 137.382812 L 142.34375 107.546875 C 142.539062 111.789062 144.90625 116.507812 148.335938 118.960938 C 153.828125 122.910156 164.761719 124.617188 168.835938 128.390625 C 176.296875 135.304688 170.269531 144.238281 159.914062 144.238281 C 153.167969 144.238281 145.429688 139.035156 145.429688 130.140625 L 145.429688 122.320312 L 142.980469 122.320312 L 142.980469 130.140625 C 142.980469 139.035156 135.226562 145.464844 128.492188 145.464844 L 128.492188 146.691406 C 131.125 146.691406 159.886719 146.675781 159.886719 146.71875 Z M 90.300781 130.441406 C 90.300781 122.96875 84.75 121.066406 78.5 120.0625 L 78.5 117.886719 C 84.75 116.882812 90.300781 114.980469 90.300781 107.503906 L 91.46875 107.503906 L 91.46875 130.441406 Z M 90.300781 130.441406 " fill-opacity="1" fill-rule="evenodd"/></g><path fill="#004aad" d="M 79.984375 175.933594 C 79.832031 175.933594 79.699219 175.875 79.582031 175.757812 C 79.464844 175.640625 79.40625 175.507812 79.40625 175.355469 L 79.40625 160.382812 C 79.40625 160.234375 79.464844 160.097656 79.582031 159.980469 C 79.699219 159.863281 79.832031 159.804688 79.984375 159.804688 L 88.066406 159.804688 C 88.238281 159.804688 88.375 159.863281 88.476562 159.980469 C 88.585938 160.097656 88.644531 160.234375 88.644531 160.382812 C 88.644531 160.535156 88.585938 160.667969 88.476562 160.78125 C 88.375 160.902344 88.238281 160.957031 88.066406 160.957031 L 80.558594 160.957031 L 80.558594 167.160156 L 86.800781 167.160156 C 86.949219 167.160156 87.085938 167.214844 87.203125 167.324219 C 87.320312 167.425781 87.378906 167.566406 87.378906 167.734375 C 87.378906 167.886719 87.320312 168.019531 87.203125 168.136719 C 87.085938 168.253906 86.949219 168.3125 86.800781 168.3125 L 80.558594 168.3125 L 80.558594 174.78125 L 88.066406 174.78125 C 88.238281 174.78125 88.375 174.835938 88.476562 174.945312 C 88.585938 175.046875 88.644531 175.1875 88.644531 175.355469 C 88.644531 175.507812 88.585938 175.640625 88.476562 175.757812 C 88.375 175.875 88.238281 175.933594 88.066406 175.933594 Z M 79.984375 175.933594 " fill-opacity="1" fill-rule="nonzero"/><path fill="#004aad" d="M 93.730469 176.117188 C 93.117188 176.117188 92.625 175.9375 92.25 175.582031 C 91.871094 175.222656 91.683594 174.738281 91.683594 174.132812 L 91.683594 159.640625 C 91.683594 159.492188 91.734375 159.363281 91.839844 159.261719 C 91.945312 159.152344 92.078125 159.097656 92.238281 159.097656 C 92.386719 159.097656 92.519531 159.152344 92.628906 159.261719 C 92.738281 159.363281 92.792969 159.492188 92.792969 159.640625 L 92.792969 174.132812 C 92.792969 174.195312 92.804688 174.304688 92.824219 174.453125 C 92.847656 174.597656 92.921875 174.726562 93.0625 174.84375 C 93.207031 174.953125 93.425781 175.007812 93.730469 175.007812 L 95.550781 175.007812 C 95.707031 175.007812 95.839844 175.0625 95.941406 175.171875 C 96.050781 175.28125 96.105469 175.414062 96.105469 175.5625 C 96.105469 175.722656 96.050781 175.851562 95.941406 175.953125 C 95.839844 176.0625 95.707031 176.117188 95.550781 176.117188 Z M 93.730469 176.117188 " fill-opacity="1" fill-rule="nonzero"/><path fill="#004aad" d="M 101.863281 176.230469 C 100.558594 176.230469 99.53125 175.785156 98.777344 174.882812 C 98.023438 173.988281 97.648438 172.769531 97.648438 171.234375 C 97.648438 169.683594 98.023438 168.464844 98.777344 167.570312 C 99.53125 166.679688 100.558594 166.234375 101.863281 166.234375 C 103 166.234375 103.957031 166.625 104.734375 167.40625 C 105.507812 168.1875 105.925781 169.246094 105.988281 170.585938 L 105.988281 170.65625 C 105.988281 170.796875 105.929688 170.917969 105.824219 171.027344 C 105.734375 171.136719 105.601562 171.191406 105.433594 171.191406 L 98.757812 171.191406 C 98.757812 172.371094 99.003906 173.324219 99.496094 174.050781 C 99.996094 174.769531 100.785156 175.128906 101.863281 175.128906 C 102.417969 175.128906 102.9375 175.011719 103.417969 174.769531 C 103.902344 174.53125 104.273438 174.21875 104.539062 173.835938 C 104.625 173.710938 104.742188 173.636719 104.886719 173.609375 C 105.035156 173.574219 105.175781 173.605469 105.296875 173.699219 C 105.421875 173.777344 105.496094 173.894531 105.523438 174.050781 C 105.558594 174.203125 105.527344 174.339844 105.433594 174.460938 C 105.066406 174.996094 104.570312 175.425781 103.929688 175.746094 C 103.292969 176.070312 102.605469 176.230469 101.863281 176.230469 Z M 98.828125 170.101562 L 104.792969 170.101562 C 104.636719 169.230469 104.300781 168.558594 103.785156 168.085938 C 103.273438 167.605469 102.628906 167.367188 101.863281 167.367188 C 101.03125 167.367188 100.363281 167.605469 99.847656 168.085938 C 99.332031 168.558594 98.992188 169.230469 98.828125 170.101562 Z M 98.828125 170.101562 " fill-opacity="1" fill-rule="nonzero"/><path fill="#004aad" d="M 112.574219 176.230469 C 111.269531 176.230469 110.242188 175.785156 109.488281 174.882812 C 108.730469 173.988281 108.355469 172.769531 108.355469 171.234375 C 108.355469 169.683594 108.730469 168.464844 109.488281 167.570312 C 110.242188 166.679688 111.269531 166.234375 112.574219 166.234375 C 113.847656 166.234375 114.863281 166.675781 115.617188 167.550781 C 115.726562 167.652344 115.773438 167.785156 115.761719 167.941406 C 115.753906 168.09375 115.691406 168.222656 115.566406 168.332031 C 115.464844 168.421875 115.332031 168.464844 115.175781 168.457031 C 115.023438 168.449219 114.894531 168.390625 114.785156 168.28125 C 114.261719 167.671875 113.523438 167.367188 112.574219 167.367188 C 111.589844 167.367188 110.824219 167.703125 110.269531 168.382812 C 109.71875 169.058594 109.445312 170.007812 109.445312 171.234375 C 109.445312 172.476562 109.71875 173.433594 110.269531 174.113281 C 110.824219 174.792969 111.589844 175.128906 112.574219 175.128906 C 113.539062 175.128906 114.277344 174.828125 114.785156 174.226562 C 114.894531 174.101562 115.023438 174.035156 115.175781 174.019531 C 115.332031 174.007812 115.464844 174.054688 115.566406 174.164062 C 115.691406 174.253906 115.753906 174.378906 115.761719 174.535156 C 115.773438 174.6875 115.726562 174.820312 115.617188 174.945312 C 114.847656 175.804688 113.832031 176.230469 112.574219 176.230469 Z M 112.574219 176.230469 " fill-opacity="1" fill-rule="nonzero"/><path fill="#004aad" d="M 121.714844 176.117188 C 121.089844 176.117188 120.597656 175.9375 120.234375 175.582031 C 119.867188 175.222656 119.6875 174.738281 119.6875 174.132812 L 119.6875 167.664062 L 117.476562 167.664062 C 117.324219 167.664062 117.199219 167.609375 117.097656 167.5 C 117 167.390625 116.953125 167.261719 116.953125 167.109375 C 116.953125 166.960938 117 166.835938 117.097656 166.738281 C 117.199219 166.636719 117.324219 166.582031 117.476562 166.582031 L 119.6875 166.582031 L 119.6875 163.191406 C 119.6875 163.039062 119.734375 162.910156 119.832031 162.808594 C 119.9375 162.703125 120.066406 162.644531 120.222656 162.644531 C 120.375 162.644531 120.503906 162.703125 120.613281 162.808594 C 120.722656 162.910156 120.78125 163.039062 120.78125 163.191406 L 120.78125 166.582031 L 123.628906 166.582031 C 123.785156 166.582031 123.917969 166.636719 124.019531 166.738281 C 124.128906 166.835938 124.183594 166.960938 124.183594 167.109375 C 124.183594 167.261719 124.128906 167.390625 124.019531 167.5 C 123.917969 167.609375 123.785156 167.664062 123.628906 167.664062 L 120.78125 167.664062 L 120.78125 174.132812 C 120.78125 174.195312 120.789062 174.304688 120.808594 174.453125 C 120.832031 174.597656 120.90625 174.726562 121.046875 174.84375 C 121.191406 174.953125 121.410156 175.007812 121.714844 175.007812 L 123.515625 175.007812 C 123.683594 175.007812 123.824219 175.0625 123.925781 175.171875 C 124.035156 175.28125 124.089844 175.414062 124.089844 175.5625 C 124.089844 175.722656 124.035156 175.851562 123.925781 175.953125 C 123.824219 176.0625 123.683594 176.117188 123.515625 176.117188 Z M 121.714844 176.117188 " fill-opacity="1" fill-rule="nonzero"/><path fill="#004aad" d="M 126.898438 176.230469 C 126.746094 176.230469 126.613281 176.175781 126.507812 176.066406 C 126.402344 175.964844 126.351562 175.84375 126.351562 175.707031 L 126.351562 166.808594 C 126.351562 166.660156 126.402344 166.53125 126.507812 166.417969 C 126.613281 166.3125 126.746094 166.253906 126.898438 166.253906 C 127.054688 166.253906 127.179688 166.3125 127.277344 166.417969 C 127.378906 166.53125 127.433594 166.660156 127.433594 166.808594 L 127.433594 167.386719 C 127.664062 167.113281 127.988281 166.871094 128.398438 166.667969 C 128.816406 166.457031 129.214844 166.316406 129.601562 166.253906 C 130.136719 166.179688 130.675781 166.222656 131.226562 166.386719 C 131.78125 166.546875 132.277344 166.816406 132.71875 167.199219 C 133.15625 167.585938 133.460938 168.09375 133.632812 168.722656 C 133.675781 168.863281 133.65625 168.996094 133.582031 169.125 C 133.503906 169.253906 133.398438 169.34375 133.265625 169.390625 C 133.105469 169.421875 132.960938 169.398438 132.832031 169.320312 C 132.699219 169.246094 132.621094 169.140625 132.59375 169 C 132.472656 168.554688 132.257812 168.203125 131.949219 167.941406 C 131.640625 167.683594 131.289062 167.507812 130.898438 167.417969 C 130.507812 167.320312 130.125 167.304688 129.757812 167.367188 C 129.097656 167.441406 128.546875 167.691406 128.101562 168.105469 C 127.652344 168.515625 127.433594 169.175781 127.433594 170.082031 L 127.433594 175.707031 C 127.433594 175.84375 127.378906 175.964844 127.277344 176.066406 C 127.179688 176.175781 127.054688 176.230469 126.898438 176.230469 Z M 126.898438 176.230469 " fill-opacity="1" fill-rule="nonzero"/><path fill="#004aad" d="M 139.800781 176.230469 C 138.496094 176.230469 137.46875 175.785156 136.714844 174.882812 C 135.957031 173.988281 135.582031 172.769531 135.582031 171.234375 C 135.582031 169.683594 135.957031 168.464844 136.714844 167.570312 C 137.46875 166.679688 138.496094 166.234375 139.800781 166.234375 C 141.085938 166.234375 142.113281 166.679688 142.875 167.570312 C 143.636719 168.464844 144.015625 169.683594 144.015625 171.234375 C 144.015625 172.769531 143.636719 173.988281 142.875 174.882812 C 142.113281 175.785156 141.085938 176.230469 139.800781 176.230469 Z M 139.800781 175.128906 C 140.800781 175.128906 141.570312 174.792969 142.101562 174.113281 C 142.644531 173.433594 142.914062 172.476562 142.914062 171.234375 C 142.914062 170.007812 142.644531 169.058594 142.101562 168.382812 C 141.570312 167.703125 140.800781 167.367188 139.800781 167.367188 C 138.816406 167.367188 138.050781 167.703125 137.496094 168.382812 C 136.945312 169.058594 136.671875 170.007812 136.671875 171.234375 C 136.671875 172.476562 136.945312 173.433594 137.496094 174.113281 C 138.050781 174.792969 138.816406 175.128906 139.800781 175.128906 Z M 139.800781 175.128906 " fill-opacity="1" fill-rule="nonzero"/><path fill="#004aad" d="M 147.402344 176.230469 C 147.25 176.230469 147.117188 176.175781 147 176.066406 C 146.882812 175.964844 146.824219 175.835938 146.824219 175.675781 L 146.824219 160.03125 C 146.824219 159.757812 146.972656 159.566406 147.269531 159.457031 C 147.539062 159.382812 147.753906 159.472656 147.90625 159.734375 L 153.417969 169.371094 L 158.941406 159.734375 C 159.003906 159.609375 159.097656 159.527344 159.230469 159.488281 C 159.359375 159.441406 159.480469 159.429688 159.589844 159.457031 C 159.882812 159.566406 160.03125 159.757812 160.03125 160.03125 L 160.03125 175.675781 C 160.03125 175.835938 159.972656 175.964844 159.855469 176.066406 C 159.738281 176.175781 159.59375 176.230469 159.425781 176.230469 C 159.273438 176.230469 159.140625 176.175781 159.035156 176.066406 C 158.929688 175.964844 158.878906 175.835938 158.878906 175.675781 L 158.878906 162.183594 L 153.921875 170.789062 C 153.824219 170.996094 153.65625 171.097656 153.417969 171.097656 C 153.199219 171.097656 153.027344 170.996094 152.902344 170.789062 L 147.976562 162.183594 L 147.976562 175.675781 C 147.976562 175.835938 147.921875 175.964844 147.8125 176.066406 C 147.710938 176.175781 147.570312 176.230469 147.402344 176.230469 Z M 147.402344 176.230469 " fill-opacity="1" fill-rule="nonzero"/><path fill="#004aad" d="M 167.046875 176.230469 C 165.742188 176.230469 164.714844 175.785156 163.960938 174.882812 C 163.207031 173.988281 162.832031 172.769531 162.832031 171.234375 C 162.832031 169.683594 163.207031 168.464844 163.960938 167.570312 C 164.714844 166.679688 165.742188 166.234375 167.046875 166.234375 C 168.183594 166.234375 169.140625 166.625 169.917969 167.40625 C 170.691406 168.1875 171.109375 169.246094 171.171875 170.585938 L 171.171875 170.65625 C 171.171875 170.796875 171.117188 170.917969 171.007812 171.027344 C 170.917969 171.136719 170.785156 171.191406 170.617188 171.191406 L 163.941406 171.191406 C 163.941406 172.371094 164.1875 173.324219 164.683594 174.050781 C 165.179688 174.769531 165.96875 175.128906 167.046875 175.128906 C 167.601562 175.128906 168.121094 175.011719 168.601562 174.769531 C 169.085938 174.53125 169.460938 174.21875 169.722656 173.835938 C 169.808594 173.710938 169.925781 173.636719 170.070312 173.609375 C 170.21875 173.574219 170.359375 173.605469 170.484375 173.699219 C 170.605469 173.777344 170.679688 173.894531 170.710938 174.050781 C 170.742188 174.203125 170.710938 174.339844 170.617188 174.460938 C 170.25 174.996094 169.753906 175.425781 169.113281 175.746094 C 168.476562 176.070312 167.789062 176.230469 167.046875 176.230469 Z M 164.011719 170.101562 L 169.980469 170.101562 C 169.820312 169.230469 169.484375 168.558594 168.972656 168.085938 C 168.457031 167.605469 167.8125 167.367188 167.046875 167.367188 C 166.21875 167.367188 165.546875 167.605469 165.03125 168.085938 C 164.515625 168.558594 164.179688 169.230469 164.011719 170.101562 Z M 164.011719 170.101562 " fill-opacity="1" fill-rule="nonzero"/><path fill="#004aad" d="M 177.757812 176.230469 C 176.453125 176.230469 175.425781 175.785156 174.671875 174.882812 C 173.917969 173.988281 173.542969 172.769531 173.542969 171.234375 C 173.542969 169.683594 173.917969 168.464844 174.671875 167.570312 C 175.425781 166.679688 176.453125 166.234375 177.757812 166.234375 C 179.035156 166.234375 180.046875 166.675781 180.804688 167.550781 C 180.910156 167.652344 180.960938 167.785156 180.945312 167.941406 C 180.9375 168.09375 180.875 168.222656 180.75 168.332031 C 180.648438 168.421875 180.515625 168.464844 180.359375 168.457031 C 180.207031 168.449219 180.078125 168.390625 179.96875 168.28125 C 179.449219 167.671875 178.710938 167.367188 177.757812 167.367188 C 176.777344 167.367188 176.011719 167.703125 175.453125 168.382812 C 174.90625 169.058594 174.632812 170.007812 174.632812 171.234375 C 174.632812 172.476562 174.90625 173.433594 175.453125 174.113281 C 176.011719 174.792969 176.777344 175.128906 177.757812 175.128906 C 178.726562 175.128906 179.460938 174.828125 179.96875 174.226562 C 180.078125 174.101562 180.207031 174.035156 180.359375 174.019531 C 180.515625 174.007812 180.648438 174.054688 180.75 174.164062 C 180.875 174.253906 180.9375 174.378906 180.945312 174.535156 C 180.960938 174.6875 180.910156 174.820312 180.804688 174.945312 C 180.035156 175.804688 179.019531 176.230469 177.757812 176.230469 Z M 177.757812 176.230469 " fill-opacity="1" fill-rule="nonzero"/><path fill="#004aad" d="M 183.957031 176.25 C 183.800781 176.25 183.664062 176.199219 183.558594 176.097656 C 183.453125 176 183.402344 175.878906 183.402344 175.726562 L 183.402344 159.621094 C 183.402344 159.472656 183.453125 159.339844 183.558594 159.230469 C 183.664062 159.121094 183.800781 159.066406 183.957031 159.066406 C 184.109375 159.066406 184.238281 159.121094 184.347656 159.230469 C 184.457031 159.339844 184.515625 159.472656 184.515625 159.621094 L 184.515625 167.5 C 184.863281 167.101562 185.28125 166.792969 185.769531 166.574219 C 186.261719 166.347656 186.792969 166.234375 187.363281 166.234375 C 188.425781 166.234375 189.257812 166.582031 189.863281 167.285156 C 190.472656 167.984375 190.777344 168.921875 190.777344 170.101562 L 190.777344 175.707031 C 190.777344 175.859375 190.726562 175.980469 190.625 176.078125 C 190.523438 176.179688 190.398438 176.230469 190.242188 176.230469 C 190.089844 176.230469 189.960938 176.179688 189.851562 176.078125 C 189.75 175.980469 189.699219 175.859375 189.699219 175.707031 L 189.699219 170.101562 C 189.699219 169.75 189.640625 169.359375 189.53125 168.929688 C 189.421875 168.496094 189.203125 168.125 188.875 167.808594 C 188.546875 167.492188 188.042969 167.335938 187.363281 167.335938 C 186.566406 167.335938 185.890625 167.582031 185.335938 168.074219 C 184.785156 168.570312 184.515625 169.269531 184.515625 170.171875 L 184.515625 175.726562 C 184.515625 175.878906 184.457031 176 184.347656 176.097656 C 184.238281 176.199219 184.109375 176.25 183.957031 176.25 Z M 183.957031 176.25 " fill-opacity="1" fill-rule="nonzero"/><path fill="#726ab4" d="M 118.027344 182.65625 C 118.382812 182.65625 118.726562 182.6875 119.054688 182.75 C 119.382812 182.8125 119.707031 182.917969 120.03125 183.070312 L 119.816406 183.769531 C 119.480469 183.609375 119.171875 183.5 118.902344 183.4375 C 118.625 183.378906 118.347656 183.347656 118.066406 183.347656 C 117.578125 183.347656 117.1875 183.457031 116.894531 183.675781 C 116.605469 183.890625 116.464844 184.195312 116.464844 184.589844 C 116.464844 184.933594 116.570312 185.207031 116.792969 185.414062 C 117.019531 185.613281 117.363281 185.789062 117.832031 185.9375 L 118.625 186.195312 C 119.226562 186.402344 119.667969 186.683594 119.949219 187.039062 C 120.230469 187.386719 120.371094 187.789062 120.371094 188.242188 C 120.371094 188.566406 120.308594 188.855469 120.1875 189.117188 C 120.066406 189.371094 119.898438 189.585938 119.671875 189.765625 C 119.449219 189.945312 119.1875 190.082031 118.878906 190.175781 C 118.570312 190.269531 118.230469 190.320312 117.863281 190.320312 C 117.484375 190.320312 117.105469 190.285156 116.730469 190.21875 C 116.351562 190.148438 115.976562 190.027344 115.597656 189.847656 L 115.824219 189.148438 C 116.15625 189.320312 116.480469 189.441406 116.800781 189.515625 C 117.125 189.585938 117.460938 189.621094 117.8125 189.621094 C 118.296875 189.621094 118.699219 189.515625 119.015625 189.300781 C 119.335938 189.089844 119.496094 188.765625 119.496094 188.324219 C 119.496094 188.167969 119.472656 188.019531 119.425781 187.882812 C 119.382812 187.738281 119.308594 187.609375 119.199219 187.492188 C 119.089844 187.375 118.9375 187.265625 118.746094 187.164062 C 118.5625 187.054688 118.320312 186.953125 118.027344 186.855469 L 117.253906 186.605469 C 116.761719 186.449219 116.359375 186.222656 116.050781 185.917969 C 115.742188 185.609375 115.589844 185.203125 115.589844 184.695312 C 115.589844 184.070312 115.796875 183.578125 116.214844 183.210938 C 116.632812 182.84375 117.238281 182.65625 118.027344 182.65625 Z M 118.027344 182.65625 " fill-opacity="1" fill-rule="nonzero"/><path fill="#726ab4" d="M 121.851562 182.75 L 126.234375 182.75 L 126.234375 183.449219 L 122.707031 183.449219 L 122.707031 186.011719 L 125.925781 186.011719 L 125.925781 186.710938 L 122.707031 186.710938 L 122.707031 189.515625 L 126.277344 189.515625 L 126.277344 190.21875 L 121.851562 190.21875 Z M 121.851562 182.75 " fill-opacity="1" fill-rule="nonzero"/><path fill="#726ab4" d="M 127.707031 182.75 L 130.011719 182.75 C 130.394531 182.75 130.734375 182.804688 131.027344 182.914062 C 131.320312 183.015625 131.570312 183.167969 131.769531 183.355469 C 131.96875 183.550781 132.117188 183.777344 132.222656 184.046875 C 132.324219 184.308594 132.375 184.597656 132.375 184.910156 C 132.375 185.191406 132.328125 185.449219 132.242188 185.679688 C 132.160156 185.914062 132.042969 186.121094 131.894531 186.296875 C 131.75 186.46875 131.578125 186.617188 131.386719 186.742188 C 131.203125 186.859375 131.007812 186.953125 130.800781 187.019531 L 132.828125 190.21875 L 131.851562 190.21875 L 130.011719 187.171875 L 128.5 187.171875 L 128.5 190.21875 L 127.707031 190.21875 Z M 128.5 186.484375 L 129.640625 186.484375 C 129.898438 186.484375 130.144531 186.457031 130.371094 186.402344 C 130.597656 186.339844 130.792969 186.246094 130.957031 186.125 C 131.121094 185.996094 131.25 185.832031 131.347656 185.640625 C 131.441406 185.449219 131.492188 185.214844 131.492188 184.941406 C 131.492188 184.421875 131.339844 184.039062 131.039062 183.800781 C 130.742188 183.558594 130.308594 183.4375 129.734375 183.4375 L 128.5 183.4375 Z M 128.5 186.484375 " fill-opacity="1" fill-rule="nonzero"/><path fill="#726ab4" d="M 133.960938 182.75 L 135.578125 187.121094 C 135.699219 187.457031 135.828125 187.808594 135.957031 188.171875 C 136.09375 188.527344 136.21875 188.871094 136.339844 189.199219 L 136.359375 189.199219 C 136.476562 188.84375 136.59375 188.492188 136.71875 188.148438 C 136.847656 187.800781 136.976562 187.457031 137.097656 187.121094 L 138.734375 182.75 L 139.640625 182.75 L 136.738281 190.21875 L 135.90625 190.21875 L 133.046875 182.75 Z M 133.960938 182.75 " fill-opacity="1" fill-rule="nonzero"/><path fill="#726ab4" d="M 140.609375 182.75 L 141.464844 182.75 L 141.464844 190.21875 L 140.609375 190.21875 Z M 140.609375 182.75 " fill-opacity="1" fill-rule="nonzero"/><path fill="#726ab4" d="M 146.523438 189.621094 C 146.90625 189.621094 147.226562 189.585938 147.480469 189.515625 C 147.742188 189.449219 147.988281 189.359375 148.222656 189.25 L 148.417969 189.929688 C 148.15625 190.058594 147.867188 190.15625 147.554688 190.21875 C 147.246094 190.285156 146.867188 190.320312 146.421875 190.320312 C 145.929688 190.320312 145.464844 190.238281 145.035156 190.074219 C 144.605469 189.910156 144.234375 189.667969 143.914062 189.34375 C 143.589844 189.019531 143.335938 188.621094 143.152344 188.148438 C 142.964844 187.671875 142.875 187.117188 142.875 186.492188 C 142.875 185.890625 142.960938 185.347656 143.140625 184.867188 C 143.316406 184.390625 143.566406 183.988281 143.882812 183.664062 C 144.203125 183.335938 144.582031 183.085938 145.011719 182.914062 C 145.449219 182.746094 145.929688 182.65625 146.441406 182.65625 C 146.90625 182.65625 147.296875 182.695312 147.605469 182.769531 C 147.914062 182.847656 148.195312 182.953125 148.457031 183.089844 L 148.253906 183.746094 C 147.976562 183.609375 147.710938 183.511719 147.449219 183.449219 C 147.195312 183.386719 146.90625 183.355469 146.574219 183.355469 C 146.199219 183.355469 145.839844 183.417969 145.507812 183.542969 C 145.167969 183.660156 144.875 183.84375 144.621094 184.097656 C 144.375 184.34375 144.171875 184.671875 144.015625 185.074219 C 143.863281 185.472656 143.789062 185.949219 143.789062 186.503906 C 143.789062 187.085938 143.863281 187.578125 144.015625 187.976562 C 144.171875 188.367188 144.378906 188.683594 144.632812 188.929688 C 144.890625 189.171875 145.183594 189.347656 145.507812 189.457031 C 145.835938 189.566406 146.175781 189.621094 146.523438 189.621094 Z M 146.523438 189.621094 " fill-opacity="1" fill-rule="nonzero"/><path fill="#726ab4" d="M 149.792969 182.75 L 154.171875 182.75 L 154.171875 183.449219 L 150.644531 183.449219 L 150.644531 186.011719 L 153.863281 186.011719 L 153.863281 186.710938 L 150.644531 186.710938 L 150.644531 189.515625 L 154.214844 189.515625 L 154.214844 190.21875 L 149.792969 190.21875 Z M 149.792969 182.75 " fill-opacity="1" fill-rule="nonzero"/></svg>