<svg xmlns="http://www.w3.org/2000/svg" xmlns:xlink="http://www.w3.org/1999/xlink" width="500" zoomAndPan="magnify" viewBox="0 0 375 374.999991" height="500" preserveAspectRatio="xMidYMid meet" version="1.0"><defs><g/><clipPath id="fef2d6ab7a"><path d="M 101.722656 128.632812 L 251.722656 128.632812 L 251.722656 211.882812 L 101.722656 211.882812 Z M 101.722656 128.632812 " clip-rule="nonzero"/></clipPath></defs><rect x="-37.5" width="450" fill="#ffffff" y="-37.499999" height="449.999989" fill-opacity="1"/><rect x="-37.5" width="450" fill="#ffffff" y="-37.499999" height="449.999989" fill-opacity="1"/><g clip-path="url(#fef2d6ab7a)"><path fill="#004aad" d="M 243.597656 132.085938 C 238.324219 130.308594 231.652344 128.632812 226.089844 128.632812 L 226.089844 132.355469 C 236.964844 135.265625 240.226562 139.96875 241.460938 148.609375 L 245.1875 148.609375 C 245.25 144.46875 244.578125 136.058594 243.597656 132.085938 Z M 101.839844 211.632812 L 138.863281 211.632812 L 138.863281 186.363281 L 136.960938 186.363281 C 134.324219 198.769531 127.546875 207.910156 113.722656 207.910156 L 101.839844 207.910156 Z M 225.480469 211.675781 C 242.78125 211.777344 251.691406 202.074219 251.691406 186.199219 C 251.691406 160.300781 222.910156 165.21875 212.054688 153.902344 C 204.898438 146.476562 204.792969 141.058594 212.429688 128.632812 C 208.121094 128.632812 208.121094 128.632812 205.988281 132.355469 L 179.734375 177.808594 C 173.671875 177.808594 170.40625 172.183594 165.597656 163.816406 L 145.285156 128.632812 L 101.839844 128.632812 L 101.839844 132.355469 C 124.367188 132.355469 125.539062 134.363281 129.746094 141.664062 L 165.179688 203.035156 C 169.003906 203.035156 170.007812 202.117188 172.667969 197.492188 L 198.832031 152.164062 C 199.125 158.609375 202.722656 165.78125 207.933594 169.503906 C 216.277344 175.507812 232.886719 178.101562 239.078125 183.832031 C 250.414062 194.335938 241.253906 207.910156 225.523438 207.910156 C 215.273438 207.910156 203.519531 200.003906 203.519531 186.492188 L 203.519531 174.609375 L 199.796875 174.609375 L 199.796875 186.492188 C 199.796875 200.003906 188.019531 209.769531 177.789062 209.769531 L 177.789062 211.632812 C 181.785156 211.632812 225.480469 211.613281 225.480469 211.675781 Z M 119.765625 186.949219 C 119.765625 175.59375 111.335938 172.707031 101.839844 171.179688 L 101.839844 167.875 C 111.335938 166.347656 119.765625 163.460938 119.765625 152.101562 L 121.542969 152.101562 L 121.542969 186.949219 Z M 119.765625 186.949219 " fill-opacity="1" fill-rule="evenodd"/></g><g fill="#004aad" fill-opacity="1"><g transform="translate(100.592249, 256.057718)"><g><path d="M 3.5 0 C 3.269531 0 3.066406 -0.0859375 2.890625 -0.265625 C 2.710938 -0.441406 2.625 -0.644531 2.625 -0.875 L 2.625 -23.625 C 2.625 -23.851562 2.710938 -24.054688 2.890625 -24.234375 C 3.066406 -24.410156 3.269531 -24.5 3.5 -24.5 L 15.78125 -24.5 C 16.039062 -24.5 16.25 -24.410156 16.40625 -24.234375 C 16.570312 -24.054688 16.65625 -23.851562 16.65625 -23.625 C 16.65625 -23.394531 16.570312 -23.191406 16.40625 -23.015625 C 16.25 -22.835938 16.039062 -22.75 15.78125 -22.75 L 4.375 -22.75 L 4.375 -13.328125 L 13.859375 -13.328125 C 14.085938 -13.328125 14.289062 -13.242188 14.46875 -13.078125 C 14.644531 -12.921875 14.734375 -12.710938 14.734375 -12.453125 C 14.734375 -12.222656 14.644531 -12.019531 14.46875 -11.84375 C 14.289062 -11.664062 14.085938 -11.578125 13.859375 -11.578125 L 4.375 -11.578125 L 4.375 -1.75 L 15.78125 -1.75 C 16.039062 -1.75 16.25 -1.664062 16.40625 -1.5 C 16.570312 -1.34375 16.65625 -1.132812 16.65625 -0.875 C 16.65625 -0.644531 16.570312 -0.441406 16.40625 -0.265625 C 16.25 -0.0859375 16.039062 0 15.78125 0 Z M 3.5 0 "/></g></g></g><g fill="#004aad" fill-opacity="1"><g transform="translate(119.24304, 256.057718)"><g><path d="M 5.734375 0.28125 C 4.804688 0.28125 4.054688 0.0078125 3.484375 -0.53125 C 2.910156 -1.082031 2.625 -1.816406 2.625 -2.734375 L 2.625 -24.75 C 2.625 -24.976562 2.703125 -25.171875 2.859375 -25.328125 C 3.023438 -25.492188 3.226562 -25.578125 3.46875 -25.578125 C 3.695312 -25.578125 3.894531 -25.492188 4.0625 -25.328125 C 4.226562 -25.171875 4.3125 -24.976562 4.3125 -24.75 L 4.3125 -2.734375 C 4.3125 -2.640625 4.328125 -2.476562 4.359375 -2.25 C 4.390625 -2.03125 4.507812 -1.832031 4.71875 -1.65625 C 4.9375 -1.488281 5.273438 -1.40625 5.734375 -1.40625 L 8.5 -1.40625 C 8.738281 -1.40625 8.9375 -1.320312 9.09375 -1.15625 C 9.257812 -0.988281 9.34375 -0.789062 9.34375 -0.5625 C 9.34375 -0.320312 9.257812 -0.125 9.09375 0.03125 C 8.9375 0.195312 8.738281 0.28125 8.5 0.28125 Z M 5.734375 0.28125 "/></g></g></g><g fill="#004aad" fill-opacity="1"><g transform="translate(129.285767, 256.057718)"><g><path d="M 8.046875 0.453125 C 6.066406 0.453125 4.503906 -0.226562 3.359375 -1.59375 C 2.210938 -2.957031 1.640625 -4.804688 1.640625 -7.140625 C 1.640625 -9.492188 2.210938 -11.347656 3.359375 -12.703125 C 4.503906 -14.054688 6.066406 -14.734375 8.046875 -14.734375 C 9.773438 -14.734375 11.226562 -14.140625 12.40625 -12.953125 C 13.582031 -11.765625 14.21875 -10.15625 14.3125 -8.125 L 14.3125 -8.015625 C 14.3125 -7.804688 14.226562 -7.617188 14.0625 -7.453125 C 13.925781 -7.285156 13.726562 -7.203125 13.46875 -7.203125 L 3.328125 -7.203125 C 3.328125 -5.410156 3.703125 -3.960938 4.453125 -2.859375 C 5.210938 -1.765625 6.410156 -1.21875 8.046875 -1.21875 C 8.890625 -1.21875 9.675781 -1.398438 10.40625 -1.765625 C 11.144531 -2.128906 11.710938 -2.601562 12.109375 -3.1875 C 12.242188 -3.375 12.421875 -3.488281 12.640625 -3.53125 C 12.867188 -3.582031 13.078125 -3.535156 13.265625 -3.390625 C 13.453125 -3.273438 13.566406 -3.097656 13.609375 -2.859375 C 13.660156 -2.628906 13.613281 -2.421875 13.46875 -2.234375 C 12.914062 -1.421875 12.15625 -0.769531 11.1875 -0.28125 C 10.21875 0.207031 9.171875 0.453125 8.046875 0.453125 Z M 3.4375 -8.859375 L 12.5 -8.859375 C 12.257812 -10.179688 11.75 -11.203125 10.96875 -11.921875 C 10.1875 -12.648438 9.210938 -13.015625 8.046875 -13.015625 C 6.785156 -13.015625 5.765625 -12.648438 4.984375 -11.921875 C 4.203125 -11.203125 3.6875 -10.179688 3.4375 -8.859375 Z M 3.4375 -8.859375 "/></g></g></g><g fill="#004aad" fill-opacity="1"><g transform="translate(145.557091, 256.057718)"><g><path d="M 8.046875 0.453125 C 6.066406 0.453125 4.503906 -0.226562 3.359375 -1.59375 C 2.210938 -2.957031 1.640625 -4.804688 1.640625 -7.140625 C 1.640625 -9.492188 2.210938 -11.347656 3.359375 -12.703125 C 4.503906 -14.054688 6.066406 -14.734375 8.046875 -14.734375 C 9.984375 -14.734375 11.523438 -14.066406 12.671875 -12.734375 C 12.835938 -12.578125 12.910156 -12.378906 12.890625 -12.140625 C 12.878906 -11.910156 12.78125 -11.710938 12.59375 -11.546875 C 12.4375 -11.410156 12.238281 -11.347656 12 -11.359375 C 11.769531 -11.367188 11.570312 -11.457031 11.40625 -11.625 C 10.613281 -12.550781 9.492188 -13.015625 8.046875 -13.015625 C 6.554688 -13.015625 5.390625 -12.5 4.546875 -11.46875 C 3.710938 -10.445312 3.296875 -9.003906 3.296875 -7.140625 C 3.296875 -5.253906 3.710938 -3.796875 4.546875 -2.765625 C 5.390625 -1.734375 6.554688 -1.21875 8.046875 -1.21875 C 9.515625 -1.21875 10.632812 -1.675781 11.40625 -2.59375 C 11.570312 -2.78125 11.769531 -2.882812 12 -2.90625 C 12.238281 -2.925781 12.4375 -2.851562 12.59375 -2.6875 C 12.78125 -2.550781 12.878906 -2.363281 12.890625 -2.125 C 12.910156 -1.894531 12.835938 -1.6875 12.671875 -1.5 C 11.503906 -0.195312 9.960938 0.453125 8.046875 0.453125 Z M 8.046875 0.453125 "/></g></g></g><g fill="#004aad" fill-opacity="1"><g transform="translate(159.553935, 256.057718)"><g><path d="M 7.9375 0.28125 C 6.988281 0.28125 6.238281 0.0078125 5.6875 -0.53125 C 5.132812 -1.082031 4.859375 -1.816406 4.859375 -2.734375 L 4.859375 -12.5625 L 1.5 -12.5625 C 1.269531 -12.5625 1.078125 -12.644531 0.921875 -12.8125 C 0.773438 -12.976562 0.703125 -13.175781 0.703125 -13.40625 C 0.703125 -13.632812 0.773438 -13.820312 0.921875 -13.96875 C 1.078125 -14.125 1.269531 -14.203125 1.5 -14.203125 L 4.859375 -14.203125 L 4.859375 -19.359375 C 4.859375 -19.585938 4.929688 -19.78125 5.078125 -19.9375 C 5.234375 -20.101562 5.429688 -20.1875 5.671875 -20.1875 C 5.898438 -20.1875 6.097656 -20.101562 6.265625 -19.9375 C 6.429688 -19.78125 6.515625 -19.585938 6.515625 -19.359375 L 6.515625 -14.203125 L 10.84375 -14.203125 C 11.082031 -14.203125 11.28125 -14.125 11.4375 -13.96875 C 11.601562 -13.820312 11.6875 -13.632812 11.6875 -13.40625 C 11.6875 -13.175781 11.601562 -12.976562 11.4375 -12.8125 C 11.28125 -12.644531 11.082031 -12.5625 10.84375 -12.5625 L 6.515625 -12.5625 L 6.515625 -2.734375 C 6.515625 -2.640625 6.53125 -2.476562 6.5625 -2.25 C 6.59375 -2.03125 6.710938 -1.832031 6.921875 -1.65625 C 7.140625 -1.488281 7.476562 -1.40625 7.9375 -1.40625 L 10.671875 -1.40625 C 10.929688 -1.40625 11.140625 -1.320312 11.296875 -1.15625 C 11.460938 -0.988281 11.546875 -0.789062 11.546875 -0.5625 C 11.546875 -0.320312 11.460938 -0.125 11.296875 0.03125 C 11.140625 0.195312 10.929688 0.28125 10.671875 0.28125 Z M 7.9375 0.28125 "/></g></g></g><g fill="#004aad" fill-opacity="1"><g transform="translate(172.535997, 256.057718)"><g><path d="M 2.828125 0.453125 C 2.597656 0.453125 2.398438 0.367188 2.234375 0.203125 C 2.078125 0.046875 2 -0.132812 2 -0.34375 L 2 -13.859375 C 2 -14.085938 2.078125 -14.285156 2.234375 -14.453125 C 2.398438 -14.617188 2.597656 -14.703125 2.828125 -14.703125 C 3.066406 -14.703125 3.257812 -14.617188 3.40625 -14.453125 C 3.5625 -14.285156 3.640625 -14.085938 3.640625 -13.859375 L 3.640625 -12.984375 C 3.992188 -13.398438 4.484375 -13.765625 5.109375 -14.078125 C 5.742188 -14.398438 6.351562 -14.609375 6.9375 -14.703125 C 7.75 -14.816406 8.570312 -14.75 9.40625 -14.5 C 10.25 -14.257812 11.003906 -13.847656 11.671875 -13.265625 C 12.335938 -12.679688 12.800781 -11.910156 13.0625 -10.953125 C 13.125 -10.742188 13.097656 -10.539062 12.984375 -10.34375 C 12.867188 -10.144531 12.707031 -10.007812 12.5 -9.9375 C 12.257812 -9.894531 12.039062 -9.929688 11.84375 -10.046875 C 11.644531 -10.160156 11.523438 -10.320312 11.484375 -10.53125 C 11.296875 -11.207031 10.96875 -11.742188 10.5 -12.140625 C 10.03125 -12.535156 9.5 -12.800781 8.90625 -12.9375 C 8.3125 -13.082031 7.734375 -13.109375 7.171875 -13.015625 C 6.171875 -12.898438 5.332031 -12.523438 4.65625 -11.890625 C 3.976562 -11.265625 3.640625 -10.265625 3.640625 -8.890625 L 3.640625 -0.34375 C 3.640625 -0.132812 3.5625 0.046875 3.40625 0.203125 C 3.257812 0.367188 3.066406 0.453125 2.828125 0.453125 Z M 2.828125 0.453125 "/></g></g></g><g fill="#004aad" fill-opacity="1"><g transform="translate(186.917752, 256.057718)"><g><path d="M 8.046875 0.453125 C 6.066406 0.453125 4.503906 -0.226562 3.359375 -1.59375 C 2.210938 -2.957031 1.640625 -4.804688 1.640625 -7.140625 C 1.640625 -9.492188 2.210938 -11.347656 3.359375 -12.703125 C 4.503906 -14.054688 6.066406 -14.734375 8.046875 -14.734375 C 10.003906 -14.734375 11.5625 -14.054688 12.71875 -12.703125 C 13.875 -11.347656 14.453125 -9.492188 14.453125 -7.140625 C 14.453125 -4.804688 13.875 -2.957031 12.71875 -1.59375 C 11.5625 -0.226562 10.003906 0.453125 8.046875 0.453125 Z M 8.046875 -1.21875 C 9.566406 -1.21875 10.734375 -1.734375 11.546875 -2.765625 C 12.367188 -3.796875 12.78125 -5.253906 12.78125 -7.140625 C 12.78125 -9.003906 12.367188 -10.445312 11.546875 -11.46875 C 10.734375 -12.5 9.566406 -13.015625 8.046875 -13.015625 C 6.554688 -13.015625 5.390625 -12.5 4.546875 -11.46875 C 3.710938 -10.445312 3.296875 -9.003906 3.296875 -7.140625 C 3.296875 -5.253906 3.710938 -3.796875 4.546875 -2.765625 C 5.390625 -1.734375 6.554688 -1.21875 8.046875 -1.21875 Z M 8.046875 -1.21875 "/></g></g></g><g fill="#004aad" fill-opacity="1"><g transform="translate(203.014118, 256.057718)"><g><path d="M 3.5 0.453125 C 3.269531 0.453125 3.066406 0.367188 2.890625 0.203125 C 2.710938 0.046875 2.625 -0.148438 2.625 -0.390625 L 2.625 -24.15625 C 2.625 -24.570312 2.847656 -24.863281 3.296875 -25.03125 C 3.710938 -25.144531 4.035156 -25.003906 4.265625 -24.609375 L 12.640625 -9.96875 L 21.03125 -24.609375 C 21.125 -24.796875 21.269531 -24.921875 21.46875 -24.984375 C 21.664062 -25.054688 21.847656 -25.070312 22.015625 -25.03125 C 22.460938 -24.863281 22.6875 -24.570312 22.6875 -24.15625 L 22.6875 -0.390625 C 22.6875 -0.148438 22.597656 0.046875 22.421875 0.203125 C 22.242188 0.367188 22.023438 0.453125 21.765625 0.453125 C 21.535156 0.453125 21.335938 0.367188 21.171875 0.203125 C 21.015625 0.046875 20.9375 -0.148438 20.9375 -0.390625 L 20.9375 -20.890625 L 13.40625 -7.8125 C 13.257812 -7.5 13.003906 -7.34375 12.640625 -7.34375 C 12.304688 -7.34375 12.046875 -7.5 11.859375 -7.8125 L 4.375 -20.890625 L 4.375 -0.390625 C 4.375 -0.148438 4.289062 0.046875 4.125 0.203125 C 3.96875 0.367188 3.757812 0.453125 3.5 0.453125 Z M 3.5 0.453125 "/></g></g></g><g fill="#004aad" fill-opacity="1"><g transform="translate(228.313398, 256.057718)"><g><path d="M 8.046875 0.453125 C 6.066406 0.453125 4.503906 -0.226562 3.359375 -1.59375 C 2.210938 -2.957031 1.640625 -4.804688 1.640625 -7.140625 C 1.640625 -9.492188 2.210938 -11.347656 3.359375 -12.703125 C 4.503906 -14.054688 6.066406 -14.734375 8.046875 -14.734375 C 9.773438 -14.734375 11.226562 -14.140625 12.40625 -12.953125 C 13.582031 -11.765625 14.21875 -10.15625 14.3125 -8.125 L 14.3125 -8.015625 C 14.3125 -7.804688 14.226562 -7.617188 14.0625 -7.453125 C 13.925781 -7.285156 13.726562 -7.203125 13.46875 -7.203125 L 3.328125 -7.203125 C 3.328125 -5.410156 3.703125 -3.960938 4.453125 -2.859375 C 5.210938 -1.765625 6.410156 -1.21875 8.046875 -1.21875 C 8.890625 -1.21875 9.675781 -1.398438 10.40625 -1.765625 C 11.144531 -2.128906 11.710938 -2.601562 12.109375 -3.1875 C 12.242188 -3.375 12.421875 -3.488281 12.640625 -3.53125 C 12.867188 -3.582031 13.078125 -3.535156 13.265625 -3.390625 C 13.453125 -3.273438 13.566406 -3.097656 13.609375 -2.859375 C 13.660156 -2.628906 13.613281 -2.421875 13.46875 -2.234375 C 12.914062 -1.421875 12.15625 -0.769531 11.1875 -0.28125 C 10.21875 0.207031 9.171875 0.453125 8.046875 0.453125 Z M 3.4375 -8.859375 L 12.5 -8.859375 C 12.257812 -10.179688 11.75 -11.203125 10.96875 -11.921875 C 10.1875 -12.648438 9.210938 -13.015625 8.046875 -13.015625 C 6.785156 -13.015625 5.765625 -12.648438 4.984375 -11.921875 C 4.203125 -11.203125 3.6875 -10.179688 3.4375 -8.859375 Z M 3.4375 -8.859375 "/></g></g></g><g fill="#004aad" fill-opacity="1"><g transform="translate(244.584722, 256.057718)"><g><path d="M 8.046875 0.453125 C 6.066406 0.453125 4.503906 -0.226562 3.359375 -1.59375 C 2.210938 -2.957031 1.640625 -4.804688 1.640625 -7.140625 C 1.640625 -9.492188 2.210938 -11.347656 3.359375 -12.703125 C 4.503906 -14.054688 6.066406 -14.734375 8.046875 -14.734375 C 9.984375 -14.734375 11.523438 -14.066406 12.671875 -12.734375 C 12.835938 -12.578125 12.910156 -12.378906 12.890625 -12.140625 C 12.878906 -11.910156 12.78125 -11.710938 12.59375 -11.546875 C 12.4375 -11.410156 12.238281 -11.347656 12 -11.359375 C 11.769531 -11.367188 11.570312 -11.457031 11.40625 -11.625 C 10.613281 -12.550781 9.492188 -13.015625 8.046875 -13.015625 C 6.554688 -13.015625 5.390625 -12.5 4.546875 -11.46875 C 3.710938 -10.445312 3.296875 -9.003906 3.296875 -7.140625 C 3.296875 -5.253906 3.710938 -3.796875 4.546875 -2.765625 C 5.390625 -1.734375 6.554688 -1.21875 8.046875 -1.21875 C 9.515625 -1.21875 10.632812 -1.675781 11.40625 -2.59375 C 11.570312 -2.78125 11.769531 -2.882812 12 -2.90625 C 12.238281 -2.925781 12.4375 -2.851562 12.59375 -2.6875 C 12.78125 -2.550781 12.878906 -2.363281 12.890625 -2.125 C 12.910156 -1.894531 12.835938 -1.6875 12.671875 -1.5 C 11.503906 -0.195312 9.960938 0.453125 8.046875 0.453125 Z M 8.046875 0.453125 "/></g></g></g><g fill="#004aad" fill-opacity="1"><g transform="translate(258.581566, 256.057718)"><g><path d="M 3.46875 0.484375 C 3.226562 0.484375 3.023438 0.40625 2.859375 0.25 C 2.703125 0.101562 2.625 -0.0820312 2.625 -0.3125 L 2.625 -24.78125 C 2.625 -25.007812 2.703125 -25.207031 2.859375 -25.375 C 3.023438 -25.539062 3.226562 -25.625 3.46875 -25.625 C 3.695312 -25.625 3.894531 -25.539062 4.0625 -25.375 C 4.226562 -25.207031 4.3125 -25.007812 4.3125 -24.78125 L 4.3125 -12.8125 C 4.84375 -13.414062 5.476562 -13.882812 6.21875 -14.21875 C 6.96875 -14.5625 7.773438 -14.734375 8.640625 -14.734375 C 10.253906 -14.734375 11.519531 -14.203125 12.4375 -13.140625 C 13.363281 -12.078125 13.828125 -10.648438 13.828125 -8.859375 L 13.828125 -0.34375 C 13.828125 -0.113281 13.75 0.0703125 13.59375 0.21875 C 13.445312 0.375 13.253906 0.453125 13.015625 0.453125 C 12.785156 0.453125 12.585938 0.375 12.421875 0.21875 C 12.265625 0.0703125 12.1875 -0.113281 12.1875 -0.34375 L 12.1875 -8.859375 C 12.1875 -9.390625 12.101562 -9.984375 11.9375 -10.640625 C 11.769531 -11.296875 11.4375 -11.863281 10.9375 -12.34375 C 10.4375 -12.820312 9.671875 -13.0625 8.640625 -13.0625 C 7.429688 -13.0625 6.40625 -12.6875 5.5625 -11.9375 C 4.726562 -11.1875 4.3125 -10.125 4.3125 -8.75 L 4.3125 -0.3125 C 4.3125 -0.0820312 4.226562 0.101562 4.0625 0.25 C 3.894531 0.40625 3.695312 0.484375 3.46875 0.484375 Z M 3.46875 0.484375 "/></g></g></g><g fill="#726ab4" fill-opacity="1"><g transform="translate(157.372275, 277.757706)"><g><path d="M 4.515625 -11.484375 C 5.054688 -11.484375 5.578125 -11.4375 6.078125 -11.34375 C 6.578125 -11.25 7.070312 -11.085938 7.5625 -10.859375 L 7.234375 -9.796875 C 6.722656 -10.035156 6.257812 -10.203125 5.84375 -10.296875 C 5.425781 -10.390625 5.003906 -10.4375 4.578125 -10.4375 C 3.835938 -10.4375 3.242188 -10.269531 2.796875 -9.9375 C 2.359375 -9.613281 2.140625 -9.148438 2.140625 -8.546875 C 2.140625 -8.023438 2.304688 -7.609375 2.640625 -7.296875 C 2.984375 -6.992188 3.507812 -6.726562 4.21875 -6.5 L 5.421875 -6.109375 C 6.335938 -5.796875 7.007812 -5.367188 7.4375 -4.828125 C 7.863281 -4.296875 8.078125 -3.6875 8.078125 -3 C 8.078125 -2.507812 7.984375 -2.066406 7.796875 -1.671875 C 7.617188 -1.285156 7.359375 -0.957031 7.015625 -0.6875 C 6.679688 -0.414062 6.28125 -0.207031 5.8125 -0.0625 C 5.34375 0.0820312 4.828125 0.15625 4.265625 0.15625 C 3.691406 0.15625 3.117188 0.101562 2.546875 0 C 1.972656 -0.101562 1.398438 -0.289062 0.828125 -0.5625 L 1.171875 -1.625 C 1.671875 -1.363281 2.164062 -1.175781 2.65625 -1.0625 C 3.144531 -0.957031 3.65625 -0.90625 4.1875 -0.90625 C 4.925781 -0.90625 5.535156 -1.066406 6.015625 -1.390625 C 6.503906 -1.710938 6.75 -2.207031 6.75 -2.875 C 6.75 -3.113281 6.710938 -3.335938 6.640625 -3.546875 C 6.578125 -3.765625 6.460938 -3.960938 6.296875 -4.140625 C 6.128906 -4.316406 5.898438 -4.484375 5.609375 -4.640625 C 5.328125 -4.804688 4.960938 -4.960938 4.515625 -5.109375 L 3.34375 -5.484375 C 2.59375 -5.722656 1.984375 -6.070312 1.515625 -6.53125 C 1.046875 -7 0.8125 -7.617188 0.8125 -8.390625 C 0.8125 -9.335938 1.128906 -10.085938 1.765625 -10.640625 C 2.398438 -11.203125 3.316406 -11.484375 4.515625 -11.484375 Z M 4.515625 -11.484375 "/></g></g></g><g fill="#726ab4" fill-opacity="1"><g transform="translate(166.264254, 277.757706)"><g><path d="M 1.4375 -11.34375 L 8.09375 -11.34375 L 8.09375 -10.28125 L 2.734375 -10.28125 L 2.734375 -6.390625 L 7.625 -6.390625 L 7.625 -5.328125 L 2.734375 -5.328125 L 2.734375 -1.0625 L 8.15625 -1.0625 L 8.15625 0 L 1.4375 0 Z M 1.4375 -11.34375 "/></g></g></g><g fill="#726ab4" fill-opacity="1"><g transform="translate(175.156233, 277.757706)"><g><path d="M 1.4375 -11.34375 L 4.9375 -11.34375 C 5.519531 -11.34375 6.035156 -11.257812 6.484375 -11.09375 C 6.929688 -10.9375 7.304688 -10.710938 7.609375 -10.421875 C 7.910156 -10.128906 8.140625 -9.78125 8.296875 -9.375 C 8.453125 -8.976562 8.53125 -8.539062 8.53125 -8.0625 C 8.53125 -7.632812 8.460938 -7.242188 8.328125 -6.890625 C 8.203125 -6.535156 8.023438 -6.222656 7.796875 -5.953125 C 7.578125 -5.691406 7.320312 -5.46875 7.03125 -5.28125 C 6.75 -5.101562 6.453125 -4.960938 6.140625 -4.859375 L 9.21875 0 L 7.734375 0 L 4.9375 -4.625 L 2.640625 -4.625 L 2.640625 0 L 1.4375 0 Z M 2.640625 -5.671875 L 4.375 -5.671875 C 4.769531 -5.671875 5.140625 -5.710938 5.484375 -5.796875 C 5.828125 -5.890625 6.125 -6.03125 6.375 -6.21875 C 6.625 -6.414062 6.820312 -6.660156 6.96875 -6.953125 C 7.113281 -7.242188 7.1875 -7.597656 7.1875 -8.015625 C 7.1875 -8.804688 6.957031 -9.382812 6.5 -9.75 C 6.050781 -10.113281 5.390625 -10.296875 4.515625 -10.296875 L 2.640625 -10.296875 Z M 2.640625 -5.671875 "/></g></g></g><g fill="#726ab4" fill-opacity="1"><g transform="translate(184.660207, 277.757706)"><g><path d="M 1.4375 -11.34375 L 3.890625 -4.703125 C 4.078125 -4.191406 4.269531 -3.660156 4.46875 -3.109375 C 4.675781 -2.566406 4.867188 -2.046875 5.046875 -1.546875 L 5.078125 -1.546875 C 5.253906 -2.085938 5.4375 -2.617188 5.625 -3.140625 C 5.820312 -3.671875 6.015625 -4.191406 6.203125 -4.703125 L 8.6875 -11.34375 L 10.0625 -11.34375 L 5.65625 0 L 4.390625 0 L 0.046875 -11.34375 Z M 1.4375 -11.34375 "/></g></g></g><g fill="#726ab4" fill-opacity="1"><g transform="translate(194.758175, 277.757706)"><g><path d="M 2.734375 -11.34375 L 2.734375 0 L 1.4375 0 L 1.4375 -11.34375 Z M 2.734375 -11.34375 "/></g></g></g><g fill="#726ab4" fill-opacity="1"><g transform="translate(198.916168, 277.757706)"><g><path d="M 6.265625 -0.90625 C 6.847656 -0.90625 7.332031 -0.957031 7.71875 -1.0625 C 8.113281 -1.164062 8.488281 -1.300781 8.84375 -1.46875 L 9.140625 -0.4375 C 8.742188 -0.238281 8.304688 -0.09375 7.828125 0 C 7.359375 0.101562 6.785156 0.15625 6.109375 0.15625 C 5.359375 0.15625 4.65625 0.03125 4 -0.21875 C 3.351562 -0.46875 2.785156 -0.835938 2.296875 -1.328125 C 1.804688 -1.816406 1.421875 -2.421875 1.140625 -3.140625 C 0.859375 -3.867188 0.71875 -4.707031 0.71875 -5.65625 C 0.71875 -6.570312 0.851562 -7.394531 1.125 -8.125 C 1.394531 -8.851562 1.769531 -9.460938 2.25 -9.953125 C 2.738281 -10.453125 3.3125 -10.832031 3.96875 -11.09375 C 4.632812 -11.351562 5.359375 -11.484375 6.140625 -11.484375 C 6.847656 -11.484375 7.4375 -11.425781 7.90625 -11.3125 C 8.375 -11.195312 8.804688 -11.035156 9.203125 -10.828125 L 8.890625 -9.828125 C 8.472656 -10.035156 8.066406 -10.1875 7.671875 -10.28125 C 7.285156 -10.375 6.84375 -10.421875 6.34375 -10.421875 C 5.769531 -10.421875 5.226562 -10.328125 4.71875 -10.140625 C 4.207031 -9.960938 3.757812 -9.679688 3.375 -9.296875 C 3 -8.921875 2.691406 -8.425781 2.453125 -7.8125 C 2.222656 -7.207031 2.109375 -6.484375 2.109375 -5.640625 C 2.109375 -4.753906 2.222656 -4.007812 2.453125 -3.40625 C 2.691406 -2.8125 3.003906 -2.328125 3.390625 -1.953125 C 3.785156 -1.585938 4.226562 -1.320312 4.71875 -1.15625 C 5.21875 -0.988281 5.734375 -0.90625 6.265625 -0.90625 Z M 6.265625 -0.90625 "/></g></g></g><g fill="#726ab4" fill-opacity="1"><g transform="translate(208.708145, 277.757706)"><g><path d="M 1.4375 -11.34375 L 8.09375 -11.34375 L 8.09375 -10.28125 L 2.734375 -10.28125 L 2.734375 -6.390625 L 7.625 -6.390625 L 7.625 -5.328125 L 2.734375 -5.328125 L 2.734375 -1.0625 L 8.15625 -1.0625 L 8.15625 0 L 1.4375 0 Z M 1.4375 -11.34375 "/></g></g></g></svg>