<svg xmlns="http://www.w3.org/2000/svg" xmlns:xlink="http://www.w3.org/1999/xlink" width="375" zoomAndPan="magnify" viewBox="0 0 281.25 281.249989" height="375" preserveAspectRatio="xMidYMid meet" version="1.0"><defs><clipPath id="405453ad19"><path d="M 0 28.050781 L 280.503906 28.050781 L 280.503906 258.4375 L 0 258.4375 Z M 0 28.050781 " clip-rule="nonzero"/></clipPath><clipPath id="4a4765c0c2"><path d="M 36.078125 45.558594 L 238 45.558594 L 238 157.644531 L 36.078125 157.644531 Z M 36.078125 45.558594 " clip-rule="nonzero"/></clipPath></defs><g clip-path="url(#405453ad19)"><rect x="-28.125" width="337.5" fill="#ffffff" y="-28.124999" height="337.499986" fill-opacity="1"/><rect x="-28.125" width="337.5" fill="#ffffff" y="-28.124999" height="337.499986" fill-opacity="1"/></g><g clip-path="url(#4a4765c0c2)"><path fill="#004aad" d="M 227.101562 50.207031 C 220 47.8125 211.019531 45.558594 203.527344 45.558594 L 203.527344 50.570312 C 218.171875 54.488281 222.5625 60.820312 224.222656 72.453125 L 229.242188 72.453125 C 229.324219 66.878906 228.421875 55.554688 227.101562 50.207031 Z M 36.238281 157.308594 L 86.085938 157.308594 L 86.085938 123.285156 L 83.523438 123.285156 C 79.972656 139.988281 70.847656 152.296875 52.234375 152.296875 L 36.238281 152.296875 Z M 202.707031 157.367188 C 226 157.503906 238 144.441406 238 123.066406 C 238 88.195312 199.246094 94.816406 184.632812 79.582031 C 174.996094 69.582031 174.855469 62.289062 185.136719 45.558594 C 179.335938 45.558594 179.335938 45.558594 176.464844 50.570312 L 141.113281 111.769531 C 132.953125 111.769531 128.554688 104.195312 122.082031 92.929688 L 94.730469 45.558594 L 36.238281 45.558594 L 36.238281 50.570312 C 66.566406 50.570312 68.144531 53.273438 73.808594 63.101562 L 121.519531 145.734375 C 126.667969 145.734375 128.019531 144.496094 131.601562 138.269531 L 166.828125 77.238281 C 167.222656 85.917969 172.066406 95.574219 179.082031 100.585938 C 190.316406 108.671875 212.679688 112.164062 221.015625 119.878906 C 236.277344 134.019531 223.945312 152.296875 202.765625 152.296875 C 188.964844 152.296875 173.140625 141.652344 173.140625 123.460938 L 173.140625 107.460938 L 168.128906 107.460938 L 168.128906 123.460938 C 168.128906 141.652344 152.269531 154.800781 138.496094 154.800781 L 138.496094 157.308594 C 143.875 157.308594 202.707031 157.28125 202.707031 157.367188 Z M 60.371094 124.074219 C 60.371094 108.785156 49.023438 104.898438 36.238281 102.84375 L 36.238281 98.394531 C 49.023438 96.335938 60.371094 92.449219 60.371094 77.15625 L 62.765625 77.15625 L 62.765625 124.074219 Z M 60.371094 124.074219 " fill-opacity="1" fill-rule="evenodd"/></g><path fill="#004aad" d="M 39.269531 217.125 C 38.957031 217.125 38.683594 217.007812 38.449219 216.765625 C 38.207031 216.53125 38.089844 216.257812 38.089844 215.945312 L 38.089844 185.316406 C 38.089844 185.011719 38.207031 184.738281 38.449219 184.496094 C 38.683594 184.257812 38.957031 184.136719 39.269531 184.136719 L 55.804688 184.136719 C 56.152344 184.136719 56.4375 184.257812 56.644531 184.496094 C 56.867188 184.738281 56.984375 185.011719 56.984375 185.316406 C 56.984375 185.625 56.867188 185.898438 56.644531 186.136719 C 56.4375 186.378906 56.152344 186.492188 55.804688 186.492188 L 40.449219 186.492188 L 40.449219 199.179688 L 53.21875 199.179688 C 53.523438 199.179688 53.796875 199.292969 54.039062 199.515625 C 54.273438 199.726562 54.394531 200.011719 54.394531 200.355469 C 54.394531 200.667969 54.273438 200.941406 54.039062 201.175781 C 53.796875 201.417969 53.523438 201.535156 53.21875 201.535156 L 40.449219 201.535156 L 40.449219 214.769531 L 55.804688 214.769531 C 56.152344 214.769531 56.4375 214.882812 56.644531 215.105469 C 56.867188 215.316406 56.984375 215.597656 56.984375 215.945312 C 56.984375 216.257812 56.867188 216.53125 56.644531 216.765625 C 56.4375 217.007812 56.152344 217.125 55.804688 217.125 Z M 39.269531 217.125 " fill-opacity="1" fill-rule="nonzero"/><path fill="#004aad" d="M 67.390625 217.503906 C 66.136719 217.503906 65.128906 217.132812 64.359375 216.410156 C 63.585938 215.667969 63.203125 214.679688 63.203125 213.441406 L 63.203125 183.800781 C 63.203125 183.496094 63.308594 183.230469 63.519531 183.023438 C 63.738281 182.800781 64.011719 182.683594 64.339844 182.683594 C 64.644531 182.683594 64.914062 182.800781 65.136719 183.023438 C 65.359375 183.230469 65.476562 183.496094 65.476562 183.800781 L 65.476562 213.441406 C 65.476562 213.570312 65.496094 213.789062 65.539062 214.09375 C 65.582031 214.390625 65.738281 214.65625 66.023438 214.894531 C 66.316406 215.121094 66.769531 215.230469 67.390625 215.230469 L 71.113281 215.230469 C 71.433594 215.230469 71.703125 215.347656 71.914062 215.566406 C 72.132812 215.792969 72.25 216.0625 72.25 216.367188 C 72.25 216.691406 72.132812 216.957031 71.914062 217.167969 C 71.703125 217.386719 71.433594 217.503906 71.113281 217.503906 Z M 67.390625 217.503906 " fill-opacity="1" fill-rule="nonzero"/><path fill="#004aad" d="M 84.023438 217.734375 C 81.359375 217.734375 79.253906 216.820312 77.714844 214.976562 C 76.167969 213.140625 75.398438 210.65625 75.398438 207.507812 C 75.398438 204.34375 76.167969 201.84375 77.714844 200.019531 C 79.253906 198.199219 81.359375 197.285156 84.023438 197.285156 C 86.351562 197.285156 88.304688 198.085938 89.894531 199.683594 C 91.476562 201.28125 92.335938 203.449219 92.460938 206.183594 L 92.460938 206.332031 C 92.460938 206.617188 92.34375 206.867188 92.125 207.089844 C 91.941406 207.316406 91.671875 207.425781 91.324219 207.425781 L 77.671875 207.425781 C 77.671875 209.839844 78.175781 211.789062 79.1875 213.273438 C 80.207031 214.746094 81.820312 215.484375 84.023438 215.484375 C 85.160156 215.484375 86.21875 215.242188 87.203125 214.746094 C 88.195312 214.257812 88.957031 213.621094 89.496094 212.832031 C 89.671875 212.578125 89.914062 212.425781 90.210938 212.371094 C 90.515625 212.300781 90.800781 212.363281 91.050781 212.558594 C 91.304688 212.714844 91.457031 212.953125 91.515625 213.273438 C 91.582031 213.585938 91.519531 213.863281 91.324219 214.117188 C 90.578125 215.210938 89.558594 216.085938 88.253906 216.746094 C 86.949219 217.402344 85.539062 217.734375 84.023438 217.734375 Z M 77.820312 205.195312 L 90.019531 205.195312 C 89.695312 203.417969 89.011719 202.039062 87.960938 201.070312 C 86.90625 200.09375 85.59375 199.597656 84.023438 199.597656 C 82.328125 199.597656 80.953125 200.09375 79.902344 201.070312 C 78.851562 202.039062 78.15625 203.417969 77.820312 205.195312 Z M 77.820312 205.195312 " fill-opacity="1" fill-rule="nonzero"/><path fill="#004aad" d="M 105.933594 217.734375 C 103.265625 217.734375 101.164062 216.820312 99.621094 214.976562 C 98.074219 213.140625 97.308594 210.65625 97.308594 207.507812 C 97.308594 204.34375 98.074219 201.84375 99.621094 200.019531 C 101.164062 198.199219 103.265625 197.285156 105.933594 197.285156 C 108.542969 197.285156 110.613281 198.183594 112.160156 199.976562 C 112.378906 200.1875 112.480469 200.457031 112.453125 200.777344 C 112.4375 201.089844 112.308594 201.355469 112.054688 201.578125 C 111.84375 201.761719 111.574219 201.84375 111.253906 201.828125 C 110.945312 201.820312 110.675781 201.699219 110.457031 201.472656 C 109.386719 200.226562 107.878906 199.597656 105.933594 199.597656 C 103.921875 199.597656 102.355469 200.292969 101.21875 201.683594 C 100.09375 203.058594 99.535156 205 99.535156 207.507812 C 99.535156 210.050781 100.09375 212.011719 101.21875 213.398438 C 102.355469 214.789062 103.921875 215.484375 105.933594 215.484375 C 107.910156 215.484375 109.414062 214.867188 110.457031 213.632812 C 110.675781 213.378906 110.945312 213.242188 111.253906 213.210938 C 111.574219 213.183594 111.84375 213.285156 112.054688 213.503906 C 112.308594 213.691406 112.4375 213.941406 112.453125 214.261719 C 112.480469 214.574219 112.378906 214.851562 112.160156 215.105469 C 110.585938 216.859375 108.507812 217.734375 105.933594 217.734375 Z M 105.933594 217.734375 " fill-opacity="1" fill-rule="nonzero"/><path fill="#004aad" d="M 124.632812 217.503906 C 123.351562 217.503906 122.34375 217.132812 121.601562 216.410156 C 120.855469 215.667969 120.488281 214.679688 120.488281 213.441406 L 120.488281 200.210938 L 115.964844 200.210938 C 115.652344 200.210938 115.394531 200.097656 115.183594 199.875 C 114.984375 199.652344 114.890625 199.382812 114.890625 199.074219 C 114.890625 198.769531 114.984375 198.515625 115.183594 198.316406 C 115.394531 198.105469 115.652344 198 115.964844 198 L 120.488281 198 L 120.488281 191.058594 C 120.488281 190.753906 120.582031 190.492188 120.78125 190.28125 C 120.992188 190.058594 121.253906 189.941406 121.582031 189.941406 C 121.886719 189.941406 122.152344 190.058594 122.378906 190.28125 C 122.601562 190.492188 122.714844 190.753906 122.714844 191.058594 L 122.714844 198 L 128.542969 198 C 128.863281 198 129.132812 198.105469 129.34375 198.316406 C 129.5625 198.515625 129.679688 198.769531 129.679688 199.074219 C 129.679688 199.382812 129.5625 199.652344 129.34375 199.875 C 129.132812 200.097656 128.863281 200.210938 128.542969 200.210938 L 122.714844 200.210938 L 122.714844 213.441406 C 122.714844 213.570312 122.738281 213.789062 122.78125 214.09375 C 122.820312 214.390625 122.980469 214.65625 123.261719 214.894531 C 123.558594 215.121094 124.011719 215.230469 124.632812 215.230469 L 128.3125 215.230469 C 128.660156 215.230469 128.945312 215.347656 129.152344 215.566406 C 129.375 215.792969 129.492188 216.0625 129.492188 216.367188 C 129.492188 216.691406 129.375 216.957031 129.152344 217.167969 C 128.945312 217.386719 128.660156 217.503906 128.3125 217.503906 Z M 124.632812 217.503906 " fill-opacity="1" fill-rule="nonzero"/><path fill="#004aad" d="M 135.230469 217.734375 C 134.921875 217.734375 134.652344 217.617188 134.429688 217.398438 C 134.222656 217.1875 134.117188 216.945312 134.117188 216.660156 L 134.117188 198.464844 C 134.117188 198.160156 134.222656 197.890625 134.429688 197.664062 C 134.652344 197.441406 134.921875 197.328125 135.230469 197.328125 C 135.550781 197.328125 135.808594 197.441406 136.007812 197.664062 C 136.21875 197.890625 136.324219 198.160156 136.324219 198.464844 L 136.324219 199.640625 C 136.796875 199.085938 137.460938 198.589844 138.300781 198.167969 C 139.152344 197.738281 139.976562 197.453125 140.761719 197.328125 C 141.859375 197.175781 142.960938 197.265625 144.085938 197.601562 C 145.222656 197.925781 146.238281 198.480469 147.136719 199.261719 C 148.03125 200.050781 148.65625 201.089844 149.011719 202.375 C 149.09375 202.660156 149.058594 202.933594 148.90625 203.195312 C 148.746094 203.464844 148.53125 203.648438 148.253906 203.742188 C 147.925781 203.800781 147.632812 203.753906 147.371094 203.597656 C 147.101562 203.445312 146.9375 203.230469 146.886719 202.945312 C 146.632812 202.035156 146.191406 201.3125 145.558594 200.777344 C 144.929688 200.246094 144.214844 199.890625 143.414062 199.703125 C 142.613281 199.511719 141.835938 199.472656 141.078125 199.597656 C 139.734375 199.757812 138.601562 200.261719 137.691406 201.113281 C 136.777344 201.957031 136.324219 203.300781 136.324219 205.152344 L 136.324219 216.660156 C 136.324219 216.945312 136.21875 217.1875 136.007812 217.398438 C 135.808594 217.617188 135.550781 217.734375 135.230469 217.734375 Z M 135.230469 217.734375 " fill-opacity="1" fill-rule="nonzero"/><path fill="#004aad" d="M 161.621094 217.734375 C 158.953125 217.734375 156.851562 216.820312 155.308594 214.976562 C 153.765625 213.140625 152.996094 210.65625 152.996094 207.507812 C 152.996094 204.34375 153.765625 201.84375 155.308594 200.019531 C 156.851562 198.199219 158.953125 197.285156 161.621094 197.285156 C 164.257812 197.285156 166.355469 198.199219 167.910156 200.019531 C 169.46875 201.84375 170.246094 204.34375 170.246094 207.507812 C 170.246094 210.65625 169.46875 213.140625 167.910156 214.976562 C 166.355469 216.820312 164.257812 217.734375 161.621094 217.734375 Z M 161.621094 215.484375 C 163.667969 215.484375 165.238281 214.789062 166.332031 213.398438 C 167.4375 212.011719 167.996094 210.050781 167.996094 207.507812 C 167.996094 205 167.4375 203.058594 166.332031 201.683594 C 165.238281 200.292969 163.667969 199.597656 161.621094 199.597656 C 159.613281 199.597656 158.042969 200.292969 156.910156 201.683594 C 155.785156 203.058594 155.226562 205 155.226562 207.507812 C 155.226562 210.050781 155.785156 212.011719 156.910156 213.398438 C 158.042969 214.789062 159.613281 215.484375 161.621094 215.484375 Z M 161.621094 215.484375 " fill-opacity="1" fill-rule="nonzero"/><path fill="#004aad" d="M 177.171875 217.734375 C 176.859375 217.734375 176.585938 217.617188 176.351562 217.398438 C 176.109375 217.1875 175.992188 216.925781 175.992188 216.597656 L 175.992188 184.601562 C 175.992188 184.042969 176.292969 183.648438 176.898438 183.421875 C 177.457031 183.269531 177.890625 183.457031 178.203125 183.988281 L 189.476562 203.703125 L 200.777344 183.988281 C 200.902344 183.738281 201.097656 183.570312 201.363281 183.484375 C 201.628906 183.390625 201.875 183.367188 202.101562 183.421875 C 202.699219 183.648438 203.003906 184.042969 203.003906 184.601562 L 203.003906 216.597656 C 203.003906 216.925781 202.882812 217.1875 202.648438 217.398438 C 202.40625 217.617188 202.109375 217.734375 201.765625 217.734375 C 201.453125 217.734375 201.1875 217.617188 200.964844 217.398438 C 200.753906 217.1875 200.648438 216.925781 200.648438 216.597656 L 200.648438 188.996094 L 190.507812 206.605469 C 190.308594 207.027344 189.96875 207.234375 189.476562 207.234375 C 189.027344 207.234375 188.679688 207.027344 188.425781 206.605469 L 178.347656 188.996094 L 178.347656 216.597656 C 178.347656 216.925781 178.234375 217.1875 178.011719 217.398438 C 177.800781 217.617188 177.519531 217.734375 177.171875 217.734375 Z M 177.171875 217.734375 " fill-opacity="1" fill-rule="nonzero"/><path fill="#004aad" d="M 217.355469 217.734375 C 214.6875 217.734375 212.585938 216.820312 211.042969 214.976562 C 209.5 213.140625 208.730469 210.65625 208.730469 207.507812 C 208.730469 204.34375 209.5 201.84375 211.042969 200.019531 C 212.585938 198.199219 214.6875 197.285156 217.355469 197.285156 C 219.679688 197.285156 221.636719 198.085938 223.226562 199.683594 C 224.808594 201.28125 225.664062 203.449219 225.792969 206.183594 L 225.792969 206.332031 C 225.792969 206.617188 225.675781 206.867188 225.457031 207.089844 C 225.269531 207.316406 225.003906 207.425781 224.65625 207.425781 L 211.003906 207.425781 C 211.003906 209.839844 211.507812 211.789062 212.515625 213.273438 C 213.539062 214.746094 215.152344 215.484375 217.355469 215.484375 C 218.492188 215.484375 219.550781 215.242188 220.53125 214.746094 C 221.527344 214.257812 222.289062 213.621094 222.824219 212.832031 C 223.003906 212.578125 223.246094 212.425781 223.539062 212.371094 C 223.847656 212.300781 224.128906 212.363281 224.382812 212.558594 C 224.636719 212.714844 224.789062 212.953125 224.84375 213.273438 C 224.914062 213.585938 224.851562 213.863281 224.65625 214.117188 C 223.910156 215.210938 222.890625 216.085938 221.585938 216.746094 C 220.28125 217.402344 218.871094 217.734375 217.355469 217.734375 Z M 211.148438 205.195312 L 223.351562 205.195312 C 223.027344 203.417969 222.34375 202.039062 221.289062 201.070312 C 220.238281 200.09375 218.921875 199.597656 217.355469 199.597656 C 215.65625 199.597656 214.285156 200.09375 213.234375 201.070312 C 212.179688 202.039062 211.488281 203.417969 211.148438 205.195312 Z M 211.148438 205.195312 " fill-opacity="1" fill-rule="nonzero"/><path fill="#004aad" d="M 239.265625 217.734375 C 236.597656 217.734375 234.496094 216.820312 232.953125 214.976562 C 231.40625 213.140625 230.640625 210.65625 230.640625 207.507812 C 230.640625 204.34375 231.40625 201.84375 232.953125 200.019531 C 234.496094 198.199219 236.597656 197.285156 239.265625 197.285156 C 241.875 197.285156 243.945312 198.183594 245.492188 199.976562 C 245.710938 200.1875 245.8125 200.457031 245.785156 200.777344 C 245.769531 201.089844 245.640625 201.355469 245.386719 201.578125 C 245.175781 201.761719 244.90625 201.84375 244.585938 201.828125 C 244.277344 201.820312 244.007812 201.699219 243.789062 201.472656 C 242.71875 200.226562 241.210938 199.597656 239.265625 199.597656 C 237.253906 199.597656 235.6875 200.292969 234.550781 201.683594 C 233.425781 203.058594 232.871094 205 232.871094 207.507812 C 232.871094 210.050781 233.425781 212.011719 234.550781 213.398438 C 235.6875 214.789062 237.253906 215.484375 239.265625 215.484375 C 241.242188 215.484375 242.746094 214.867188 243.789062 213.632812 C 244.007812 213.378906 244.277344 213.242188 244.585938 213.210938 C 244.90625 213.183594 245.175781 213.285156 245.386719 213.503906 C 245.640625 213.691406 245.769531 213.941406 245.785156 214.261719 C 245.8125 214.574219 245.710938 214.851562 245.492188 215.105469 C 243.917969 216.859375 241.84375 217.734375 239.265625 217.734375 Z M 239.265625 217.734375 " fill-opacity="1" fill-rule="nonzero"/><path fill="#004aad" d="M 251.945312 217.777344 C 251.621094 217.777344 251.347656 217.671875 251.125 217.460938 C 250.914062 217.261719 250.808594 217.011719 250.808594 216.703125 L 250.808594 183.757812 C 250.808594 183.453125 250.914062 183.183594 251.125 182.957031 C 251.347656 182.738281 251.621094 182.621094 251.945312 182.621094 C 252.25 182.621094 252.519531 182.738281 252.746094 182.957031 C 252.964844 183.183594 253.082031 183.453125 253.082031 183.757812 L 253.082031 199.875 C 253.796875 199.0625 254.648438 198.433594 255.648438 197.980469 C 256.660156 197.515625 257.742188 197.285156 258.910156 197.285156 C 261.082031 197.285156 262.785156 198 264.023438 199.429688 C 265.269531 200.863281 265.894531 202.785156 265.894531 205.195312 L 265.894531 216.660156 C 265.894531 216.972656 265.789062 217.21875 265.578125 217.417969 C 265.378906 217.628906 265.121094 217.734375 264.800781 217.734375 C 264.488281 217.734375 264.222656 217.628906 264 217.417969 C 263.789062 217.21875 263.683594 216.972656 263.683594 216.660156 L 263.683594 205.195312 C 263.683594 204.480469 263.570312 203.679688 263.347656 202.796875 C 263.121094 201.914062 262.675781 201.152344 262.003906 200.503906 C 261.328125 199.863281 260.296875 199.535156 258.910156 199.535156 C 257.28125 199.535156 255.902344 200.042969 254.765625 201.050781 C 253.640625 202.0625 253.082031 203.492188 253.082031 205.34375 L 253.082031 216.703125 C 253.082031 217.011719 252.964844 217.261719 252.746094 217.460938 C 252.519531 217.671875 252.25 217.777344 251.945312 217.777344 Z M 251.945312 217.777344 " fill-opacity="1" fill-rule="nonzero"/><path fill="#726ab4" d="M 117.085938 230.878906 C 117.8125 230.878906 118.515625 230.941406 119.191406 231.066406 C 119.863281 231.195312 120.527344 231.414062 121.1875 231.71875 L 120.746094 233.152344 C 120.058594 232.828125 119.429688 232.601562 118.875 232.476562 C 118.3125 232.351562 117.742188 232.289062 117.167969 232.289062 C 116.171875 232.289062 115.371094 232.515625 114.773438 232.960938 C 114.183594 233.398438 113.886719 234.023438 113.886719 234.832031 C 113.886719 235.539062 114.109375 236.09375 114.5625 236.515625 C 115.023438 236.925781 115.730469 237.285156 116.6875 237.589844 L 118.304688 238.117188 C 119.535156 238.535156 120.441406 239.113281 121.019531 239.839844 C 121.59375 240.554688 121.882812 241.375 121.882812 242.300781 C 121.882812 242.964844 121.757812 243.558594 121.503906 244.089844 C 121.261719 244.609375 120.914062 245.050781 120.453125 245.414062 C 120 245.785156 119.464844 246.0625 118.832031 246.257812 C 118.199219 246.453125 117.507812 246.550781 116.75 246.550781 C 115.976562 246.550781 115.203125 246.476562 114.433594 246.339844 C 113.660156 246.203125 112.890625 245.953125 112.121094 245.582031 L 112.582031 244.152344 C 113.257812 244.503906 113.917969 244.757812 114.582031 244.910156 C 115.238281 245.050781 115.929688 245.121094 116.644531 245.121094 C 117.636719 245.121094 118.457031 244.90625 119.105469 244.46875 C 119.761719 244.039062 120.09375 243.371094 120.09375 242.46875 C 120.09375 242.148438 120.042969 241.847656 119.945312 241.566406 C 119.863281 241.269531 119.703125 241.007812 119.484375 240.765625 C 119.257812 240.53125 118.949219 240.304688 118.558594 240.09375 C 118.179688 239.871094 117.683594 239.660156 117.085938 239.460938 L 115.507812 238.957031 C 114.5 238.636719 113.675781 238.167969 113.046875 237.546875 C 112.414062 236.917969 112.101562 236.085938 112.101562 235.042969 C 112.101562 233.769531 112.527344 232.761719 113.382812 232.015625 C 114.234375 231.257812 115.472656 230.878906 117.085938 230.878906 Z M 117.085938 230.878906 " fill-opacity="1" fill-rule="nonzero"/><path fill="#726ab4" d="M 124.914062 231.066406 L 133.875 231.066406 L 133.875 232.5 L 126.660156 232.5 L 126.660156 237.738281 L 133.246094 237.738281 L 133.246094 239.167969 L 126.660156 239.167969 L 126.660156 244.910156 L 133.960938 244.910156 L 133.960938 246.339844 L 124.914062 246.339844 Z M 124.914062 231.066406 " fill-opacity="1" fill-rule="nonzero"/><path fill="#726ab4" d="M 136.886719 231.066406 L 141.597656 231.066406 C 142.382812 231.066406 143.078125 231.183594 143.679688 231.402344 C 144.28125 231.613281 144.785156 231.917969 145.195312 232.308594 C 145.601562 232.703125 145.910156 233.171875 146.121094 233.71875 C 146.332031 234.253906 146.4375 234.84375 146.4375 235.484375 C 146.4375 236.0625 146.34375 236.589844 146.164062 237.0625 C 145.996094 237.542969 145.753906 237.960938 145.449219 238.324219 C 145.152344 238.679688 144.804688 238.976562 144.417969 239.230469 C 144.039062 239.472656 143.640625 239.660156 143.21875 239.796875 L 147.363281 246.339844 L 145.363281 246.339844 L 141.597656 240.113281 L 138.503906 240.113281 L 138.503906 246.339844 L 136.886719 246.339844 Z M 138.503906 238.703125 L 140.839844 238.703125 C 141.371094 238.703125 141.871094 238.652344 142.335938 238.535156 C 142.796875 238.410156 143.195312 238.21875 143.535156 237.96875 C 143.871094 237.703125 144.132812 237.375 144.332031 236.980469 C 144.527344 236.589844 144.628906 236.113281 144.628906 235.546875 C 144.628906 234.484375 144.316406 233.707031 143.703125 233.214844 C 143.097656 232.722656 142.207031 232.476562 141.03125 232.476562 L 138.503906 232.476562 Z M 138.503906 238.703125 " fill-opacity="1" fill-rule="nonzero"/><path fill="#726ab4" d="M 149.683594 231.066406 L 152.984375 240.007812 C 153.238281 240.699219 153.496094 241.414062 153.761719 242.15625 C 154.042969 242.886719 154.300781 243.585938 154.542969 244.257812 L 154.582031 244.257812 C 154.820312 243.53125 155.066406 242.816406 155.320312 242.113281 C 155.582031 241.398438 155.847656 240.699219 156.097656 240.007812 L 159.445312 231.066406 L 161.296875 231.066406 L 155.363281 246.339844 L 153.660156 246.339844 L 147.808594 231.066406 Z M 149.683594 231.066406 " fill-opacity="1" fill-rule="nonzero"/><path fill="#726ab4" d="M 163.277344 231.066406 L 165.023438 231.066406 L 165.023438 246.339844 L 163.277344 246.339844 Z M 163.277344 231.066406 " fill-opacity="1" fill-rule="nonzero"/><path fill="#726ab4" d="M 175.378906 245.121094 C 176.160156 245.121094 176.8125 245.050781 177.332031 244.910156 C 177.863281 244.773438 178.371094 244.589844 178.847656 244.363281 L 179.25 245.753906 C 178.710938 246.019531 178.121094 246.214844 177.480469 246.339844 C 176.851562 246.476562 176.078125 246.550781 175.167969 246.550781 C 174.15625 246.550781 173.210938 246.382812 172.328125 246.046875 C 171.453125 245.710938 170.691406 245.214844 170.035156 244.554688 C 169.371094 243.894531 168.855469 243.082031 168.476562 242.113281 C 168.097656 241.132812 167.910156 240.003906 167.910156 238.726562 C 167.910156 237.496094 168.085938 236.386719 168.457031 235.402344 C 168.820312 234.421875 169.324219 233.601562 169.96875 232.941406 C 170.628906 232.265625 171.402344 231.757812 172.285156 231.402344 C 173.179688 231.058594 174.15625 230.878906 175.207031 230.878906 C 176.160156 230.878906 176.953125 230.957031 177.585938 231.109375 C 178.21875 231.265625 178.796875 231.484375 179.332031 231.761719 L 178.910156 233.109375 C 178.347656 232.828125 177.800781 232.625 177.269531 232.5 C 176.75 232.371094 176.15625 232.308594 175.480469 232.308594 C 174.710938 232.308594 173.976562 232.433594 173.292969 232.6875 C 172.605469 232.929688 172 233.308594 171.484375 233.824219 C 170.980469 234.328125 170.566406 234.996094 170.242188 235.820312 C 169.933594 236.636719 169.78125 237.609375 169.78125 238.746094 C 169.78125 239.941406 169.933594 240.945312 170.242188 241.753906 C 170.566406 242.554688 170.984375 243.207031 171.507812 243.710938 C 172.039062 244.207031 172.632812 244.5625 173.292969 244.785156 C 173.96875 245.011719 174.660156 245.121094 175.378906 245.121094 Z M 175.378906 245.121094 " fill-opacity="1" fill-rule="nonzero"/><path fill="#726ab4" d="M 182.0625 231.066406 L 191.023438 231.066406 L 191.023438 232.5 L 183.808594 232.5 L 183.808594 237.738281 L 190.390625 237.738281 L 190.390625 239.167969 L 183.808594 239.167969 L 183.808594 244.910156 L 191.105469 244.910156 L 191.105469 246.339844 L 182.0625 246.339844 Z M 182.0625 231.066406 " fill-opacity="1" fill-rule="nonzero"/></svg>